<mxfile host="app.diagrams.net" agent="Mozilla/5.0 (Windows NT 10.0; Win64; x64) AppleWebKit/537.36 (KHTML, like Gecko) Chrome/136.0.0.0 Safari/537.36" version="26.2.13">
  <diagram name="Page-1" id="ZDUle3kIamicD0FEx88D">
    <mxGraphModel dx="1228" dy="755" grid="0" gridSize="10" guides="1" tooltips="1" connect="1" arrows="1" fold="1" page="1" pageScale="1" pageWidth="827" pageHeight="1169" background="light-dark(#FFFFFF,#FFFFFF)" math="0" shadow="0">
      <root>
        <mxCell id="0" />
        <mxCell id="1" parent="0" />
        <mxCell id="F_QdYi4xcxkMWuRYnJX9-16" style="edgeStyle=orthogonalEdgeStyle;rounded=0;orthogonalLoop=1;jettySize=auto;html=1;entryX=0.5;entryY=0;entryDx=0;entryDy=0;strokeColor=light-dark(#000000,#000000);" edge="1" parent="1" source="F_QdYi4xcxkMWuRYnJX9-6" target="F_QdYi4xcxkMWuRYnJX9-7">
          <mxGeometry relative="1" as="geometry" />
        </mxCell>
        <mxCell id="F_QdYi4xcxkMWuRYnJX9-23" style="edgeStyle=elbowEdgeStyle;rounded=0;orthogonalLoop=1;jettySize=auto;html=1;entryX=1;entryY=0.5;entryDx=0;entryDy=0;strokeColor=light-dark(#000000,#000000);curved=1;" edge="1" parent="1" source="F_QdYi4xcxkMWuRYnJX9-6" target="F_QdYi4xcxkMWuRYnJX9-8">
          <mxGeometry relative="1" as="geometry">
            <Array as="points">
              <mxPoint x="622" y="336" />
            </Array>
          </mxGeometry>
        </mxCell>
        <mxCell id="F_QdYi4xcxkMWuRYnJX9-6" value="&lt;font style=&quot;color: light-dark(rgb(0, 0, 0), rgb(0, 0, 0));&quot;&gt;RE&lt;/font&gt;&lt;font style=&quot;color: light-dark(rgb(0, 0, 0), rgb(0, 0, 0));&quot;&gt;ADING&lt;/font&gt;&lt;div style=&quot;text-align: left;&quot;&gt;&lt;font style=&quot;color: light-dark(rgb(0, 0, 0), rgb(0, 0, 0));&quot;&gt;CARD&lt;/font&gt;&lt;/div&gt;" style="rounded=1;whiteSpace=wrap;html=1;fillColor=none;strokeColor=light-dark(#000000,#000000);" vertex="1" parent="1">
          <mxGeometry x="361" y="81" width="120" height="60" as="geometry" />
        </mxCell>
        <mxCell id="F_QdYi4xcxkMWuRYnJX9-14" value="" style="edgeStyle=orthogonalEdgeStyle;rounded=0;orthogonalLoop=1;jettySize=auto;html=1;" edge="1" parent="1" source="F_QdYi4xcxkMWuRYnJX9-7" target="F_QdYi4xcxkMWuRYnJX9-10">
          <mxGeometry relative="1" as="geometry" />
        </mxCell>
        <mxCell id="F_QdYi4xcxkMWuRYnJX9-15" style="edgeStyle=orthogonalEdgeStyle;rounded=0;orthogonalLoop=1;jettySize=auto;html=1;entryX=0.5;entryY=0;entryDx=0;entryDy=0;strokeColor=light-dark(#000000,#000000);" edge="1" parent="1" source="F_QdYi4xcxkMWuRYnJX9-7" target="F_QdYi4xcxkMWuRYnJX9-10">
          <mxGeometry relative="1" as="geometry" />
        </mxCell>
        <mxCell id="F_QdYi4xcxkMWuRYnJX9-24" style="edgeStyle=elbowEdgeStyle;rounded=0;orthogonalLoop=1;jettySize=auto;html=1;entryX=1;entryY=0.5;entryDx=0;entryDy=0;strokeColor=light-dark(#000000,#000000);curved=1;" edge="1" parent="1" source="F_QdYi4xcxkMWuRYnJX9-7" target="F_QdYi4xcxkMWuRYnJX9-8">
          <mxGeometry relative="1" as="geometry">
            <Array as="points">
              <mxPoint x="577" y="383" />
            </Array>
          </mxGeometry>
        </mxCell>
        <mxCell id="F_QdYi4xcxkMWuRYnJX9-7" value="&lt;font style=&quot;color: light-dark(rgb(0, 0, 0), rgb(0, 0, 0));&quot;&gt;&amp;nbsp; &amp;nbsp; &amp;nbsp; &amp;nbsp; &amp;nbsp;READING&amp;nbsp;&lt;/font&gt;&lt;div&gt;&lt;font style=&quot;color: light-dark(rgb(0, 0, 0), rgb(0, 0, 0));&quot;&gt;&amp;nbsp; &amp;nbsp; &amp;nbsp; &amp;nbsp; &amp;nbsp;&lt;/font&gt;&lt;span style=&quot;color: light-dark(rgb(0, 0, 0), rgb(0, 0, 0)); background-color: transparent;&quot;&gt;PIN&lt;/span&gt;&lt;/div&gt;" style="rounded=1;whiteSpace=wrap;html=1;fillColor=none;strokeColor=light-dark(#000000,#000000);align=left;" vertex="1" parent="1">
          <mxGeometry x="361" y="185" width="120" height="60" as="geometry" />
        </mxCell>
        <mxCell id="F_QdYi4xcxkMWuRYnJX9-31" style="edgeStyle=orthogonalEdgeStyle;rounded=0;orthogonalLoop=1;jettySize=auto;html=1;strokeColor=light-dark(#000000,#000000);" edge="1" parent="1" source="F_QdYi4xcxkMWuRYnJX9-8" target="F_QdYi4xcxkMWuRYnJX9-26">
          <mxGeometry relative="1" as="geometry" />
        </mxCell>
        <mxCell id="F_QdYi4xcxkMWuRYnJX9-8" value="&lt;font style=&quot;color: light-dark(rgb(0, 0, 0), rgb(26, 26, 26));&quot;&gt;EJECTING&lt;/font&gt;&lt;div style=&quot;text-align: left;&quot;&gt;&lt;font style=&quot;color: light-dark(rgb(0, 0, 0), rgb(26, 26, 26));&quot;&gt;CARD&lt;/font&gt;&lt;/div&gt;" style="rounded=1;whiteSpace=wrap;html=1;fillColor=none;strokeColor=light-dark(#000000,#000000);" vertex="1" parent="1">
          <mxGeometry x="361" y="521" width="120" height="60" as="geometry" />
        </mxCell>
        <mxCell id="F_QdYi4xcxkMWuRYnJX9-11" style="edgeStyle=orthogonalEdgeStyle;rounded=0;orthogonalLoop=1;jettySize=auto;html=1;" edge="1" parent="1" source="F_QdYi4xcxkMWuRYnJX9-9">
          <mxGeometry relative="1" as="geometry">
            <mxPoint x="421" y="495" as="targetPoint" />
          </mxGeometry>
        </mxCell>
        <mxCell id="F_QdYi4xcxkMWuRYnJX9-12" style="edgeStyle=orthogonalEdgeStyle;rounded=0;orthogonalLoop=1;jettySize=auto;html=1;entryX=0.5;entryY=0;entryDx=0;entryDy=0;strokeColor=light-dark(#000000,#000000);" edge="1" parent="1" source="F_QdYi4xcxkMWuRYnJX9-9" target="F_QdYi4xcxkMWuRYnJX9-8">
          <mxGeometry relative="1" as="geometry" />
        </mxCell>
        <mxCell id="F_QdYi4xcxkMWuRYnJX9-39" style="edgeStyle=elbowEdgeStyle;rounded=0;orthogonalLoop=1;jettySize=auto;html=1;entryX=0;entryY=0.5;entryDx=0;entryDy=0;curved=1;strokeColor=light-dark(#000000,#000000);" edge="1" parent="1" target="F_QdYi4xcxkMWuRYnJX9-26">
          <mxGeometry relative="1" as="geometry">
            <mxPoint x="359" y="447" as="sourcePoint" />
            <mxPoint x="332.9999999999998" y="635.9999999999998" as="targetPoint" />
            <Array as="points">
              <mxPoint x="304" y="551" />
            </Array>
          </mxGeometry>
        </mxCell>
        <mxCell id="F_QdYi4xcxkMWuRYnJX9-46" style="edgeStyle=orthogonalEdgeStyle;rounded=0;orthogonalLoop=1;jettySize=auto;html=1;exitX=0;exitY=0.25;exitDx=0;exitDy=0;entryX=0;entryY=0.5;entryDx=0;entryDy=0;curved=1;strokeColor=light-dark(#000000,#000000);" edge="1" parent="1" source="F_QdYi4xcxkMWuRYnJX9-9" target="F_QdYi4xcxkMWuRYnJX9-10">
          <mxGeometry relative="1" as="geometry">
            <Array as="points">
              <mxPoint x="300" y="410" />
              <mxPoint x="300" y="315" />
            </Array>
          </mxGeometry>
        </mxCell>
        <mxCell id="F_QdYi4xcxkMWuRYnJX9-9" value="&lt;font style=&quot;color: light-dark(rgb(0, 0, 0), rgb(0, 0, 0));&quot;&gt;&amp;nbsp; &amp;nbsp; PERFORMING&lt;/font&gt;&lt;div&gt;&lt;font style=&quot;color: light-dark(rgb(0, 0, 0), rgb(0, 0, 0));&quot;&gt;&amp;nbsp; &amp;nbsp; TRANSACTION&lt;/font&gt;&lt;/div&gt;&lt;div&gt;&lt;font style=&quot;color: light-dark(rgb(0, 0, 0), rgb(0, 0, 0));&quot;&gt;&lt;b&gt;&amp;nbsp; &amp;nbsp; &amp;nbsp;include&lt;/b&gt;&lt;/font&gt;&lt;/div&gt;&lt;div&gt;&lt;font style=&quot;color: light-dark(rgb(0, 0, 0), rgb(0, 0, 0));&quot;&gt;&amp;nbsp; &amp;nbsp; Transaction&lt;/font&gt;&lt;/div&gt;" style="rounded=1;whiteSpace=wrap;html=1;fillColor=none;strokeColor=light-dark(#000000,#000000);align=left;" vertex="1" parent="1">
          <mxGeometry x="361" y="393" width="120" height="69" as="geometry" />
        </mxCell>
        <mxCell id="F_QdYi4xcxkMWuRYnJX9-13" style="edgeStyle=orthogonalEdgeStyle;rounded=0;orthogonalLoop=1;jettySize=auto;html=1;entryX=0.5;entryY=0;entryDx=0;entryDy=0;strokeColor=light-dark(#000000,#000000);" edge="1" parent="1" source="F_QdYi4xcxkMWuRYnJX9-10" target="F_QdYi4xcxkMWuRYnJX9-9">
          <mxGeometry relative="1" as="geometry" />
        </mxCell>
        <mxCell id="F_QdYi4xcxkMWuRYnJX9-25" style="edgeStyle=elbowEdgeStyle;rounded=0;orthogonalLoop=1;jettySize=auto;html=1;entryX=1;entryY=0.5;entryDx=0;entryDy=0;strokeColor=light-dark(#000000,#000000);curved=1;" edge="1" parent="1" source="F_QdYi4xcxkMWuRYnJX9-10" target="F_QdYi4xcxkMWuRYnJX9-8">
          <mxGeometry relative="1" as="geometry">
            <Array as="points">
              <mxPoint x="545" y="421" />
            </Array>
          </mxGeometry>
        </mxCell>
        <mxCell id="F_QdYi4xcxkMWuRYnJX9-10" value="&lt;font style=&quot;color: light-dark(rgb(0, 0, 0), rgb(0, 0, 0));&quot;&gt;&amp;nbsp; &amp;nbsp; CHOOSING&lt;/font&gt;&lt;div&gt;&lt;font style=&quot;color: light-dark(rgb(0, 0, 0), rgb(0, 0, 0));&quot;&gt;&amp;nbsp; &amp;nbsp; TRANSACTION&lt;/font&gt;&lt;/div&gt;" style="rounded=1;whiteSpace=wrap;html=1;fillColor=none;strokeColor=light-dark(#000000,#000000);align=left;" vertex="1" parent="1">
          <mxGeometry x="361" y="285" width="120" height="60" as="geometry" />
        </mxCell>
        <mxCell id="F_QdYi4xcxkMWuRYnJX9-26" value="" style="ellipse;html=1;shape=endState;fillColor=strokeColor;strokeColor=light-dark(#000000,#000000);" vertex="1" parent="1">
          <mxGeometry x="406" y="639" width="30" height="30" as="geometry" />
        </mxCell>
        <mxCell id="F_QdYi4xcxkMWuRYnJX9-29" style="edgeStyle=orthogonalEdgeStyle;rounded=0;orthogonalLoop=1;jettySize=auto;html=1;entryX=0;entryY=0.5;entryDx=0;entryDy=0;strokeColor=light-dark(#000000,#000000);" edge="1" parent="1" source="F_QdYi4xcxkMWuRYnJX9-28" target="F_QdYi4xcxkMWuRYnJX9-6">
          <mxGeometry relative="1" as="geometry" />
        </mxCell>
        <mxCell id="F_QdYi4xcxkMWuRYnJX9-28" value="" style="ellipse;fillColor=strokeColor;html=1;strokeColor=light-dark(#000000,#000000);" vertex="1" parent="1">
          <mxGeometry x="259" y="101" width="20" height="20" as="geometry" />
        </mxCell>
        <mxCell id="F_QdYi4xcxkMWuRYnJX9-32" value="&lt;font style=&quot;color: light-dark(rgb(0, 0, 0), rgb(0, 0, 0));&quot;&gt;Card not readable&lt;/font&gt;&lt;div style=&quot;&quot;&gt;&lt;font style=&quot;color: light-dark(rgb(0, 0, 0), rgb(0, 0, 0));&quot;&gt;display &quot;card not readable&quot;&lt;/font&gt;&lt;/div&gt;" style="text;html=1;align=left;verticalAlign=middle;resizable=0;points=[];autosize=1;strokeColor=none;fillColor=none;" vertex="1" parent="1">
          <mxGeometry x="489" y="75" width="161" height="41" as="geometry" />
        </mxCell>
        <mxCell id="F_QdYi4xcxkMWuRYnJX9-33" value="&lt;font style=&quot;color: light-dark(rgb(0, 0, 0), rgb(0, 0, 0));&quot;&gt;Card read&lt;/font&gt;&lt;div&gt;&lt;font style=&quot;color: light-dark(rgb(0, 0, 0), rgb(0, 0, 0));&quot;&gt;Successfully&lt;/font&gt;&lt;/div&gt;" style="text;html=1;align=left;verticalAlign=middle;resizable=0;points=[];autosize=1;strokeColor=none;fillColor=none;" vertex="1" parent="1">
          <mxGeometry x="427" y="141" width="85" height="41" as="geometry" />
        </mxCell>
        <mxCell id="F_QdYi4xcxkMWuRYnJX9-34" value="&lt;font style=&quot;color: light-dark(rgb(0, 0, 0), rgb(0, 0, 0));&quot;&gt;Cancel pressed&lt;/font&gt;" style="text;html=1;align=center;verticalAlign=middle;resizable=0;points=[];autosize=1;strokeColor=none;fillColor=none;" vertex="1" parent="1">
          <mxGeometry x="489" y="193" width="101" height="26" as="geometry" />
        </mxCell>
        <mxCell id="F_QdYi4xcxkMWuRYnJX9-35" value="&lt;span&gt;&lt;font style=&quot;color: light-dark(rgb(0, 0, 0), rgb(0, 0, 0));&quot;&gt;Cancel pressed&lt;/font&gt;&lt;/span&gt;" style="text;html=1;align=center;verticalAlign=middle;resizable=0;points=[];autosize=1;strokeColor=none;fillColor=none;" vertex="1" parent="1">
          <mxGeometry x="495" y="296" width="101" height="26" as="geometry" />
        </mxCell>
        <mxCell id="F_QdYi4xcxkMWuRYnJX9-36" value="&lt;font style=&quot;color: light-dark(rgb(0, 0, 0), rgb(0, 0, 0));&quot;&gt;PIN red&lt;/font&gt;&lt;div&gt;&lt;font style=&quot;color: light-dark(rgb(0, 0, 0), rgb(0, 0, 0));&quot;&gt;successfully&lt;/font&gt;&lt;/div&gt;" style="text;html=1;align=left;verticalAlign=middle;resizable=0;points=[];autosize=1;strokeColor=none;fillColor=none;" vertex="1" parent="1">
          <mxGeometry x="429" y="244" width="83" height="41" as="geometry" />
        </mxCell>
        <mxCell id="F_QdYi4xcxkMWuRYnJX9-37" value="&lt;font style=&quot;color: light-dark(rgb(0, 0, 0), rgb(0, 0, 0));&quot;&gt;transaction&lt;/font&gt;&lt;div style=&quot;text-align: left;&quot;&gt;&lt;font style=&quot;color: light-dark(rgb(0, 0, 0), rgb(0, 0, 0));&quot;&gt;choosen&lt;/font&gt;&lt;/div&gt;" style="text;html=1;align=center;verticalAlign=middle;resizable=0;points=[];autosize=1;strokeColor=none;fillColor=none;" vertex="1" parent="1">
          <mxGeometry x="427" y="345" width="77" height="41" as="geometry" />
        </mxCell>
        <mxCell id="F_QdYi4xcxkMWuRYnJX9-38" value="&lt;font style=&quot;color: light-dark(rgb(0, 0, 0), rgb(0, 0, 0)); font-size: 13px;&quot;&gt;Customer&lt;/font&gt;&lt;div style=&quot;text-align: left;&quot;&gt;&lt;font style=&quot;color: light-dark(rgb(0, 0, 0), rgb(0, 0, 0)); font-size: 13px;&quot;&gt;finished&lt;/font&gt;&lt;/div&gt;" style="text;html=1;align=center;verticalAlign=middle;resizable=0;points=[];autosize=1;strokeColor=none;fillColor=none;" vertex="1" parent="1">
          <mxGeometry x="423" y="470" width="74" height="43" as="geometry" />
        </mxCell>
        <mxCell id="F_QdYi4xcxkMWuRYnJX9-43" value="&lt;font style=&quot;color: light-dark(rgb(0, 0, 0), rgb(0, 0, 0));&quot;&gt;Customer&lt;/font&gt;&lt;div&gt;&lt;font style=&quot;color: light-dark(rgb(0, 0, 0), rgb(0, 0, 0));&quot;&gt;Wants to do&lt;/font&gt;&lt;/div&gt;&lt;div style=&quot;&quot;&gt;&lt;font style=&quot;color: light-dark(rgb(0, 0, 0), rgb(0, 0, 0));&quot;&gt;another&lt;/font&gt;&lt;/div&gt;" style="text;html=1;align=left;verticalAlign=middle;resizable=0;points=[];autosize=1;strokeColor=none;fillColor=none;" vertex="1" parent="1">
          <mxGeometry x="224" y="338" width="82" height="55" as="geometry" />
        </mxCell>
        <mxCell id="F_QdYi4xcxkMWuRYnJX9-48" value="&lt;font style=&quot;color: light-dark(rgb(0, 0, 0), rgb(0, 0, 0));&quot;&gt;Aborted due&lt;/font&gt;&lt;div&gt;&lt;font style=&quot;color: light-dark(rgb(0, 0, 0), rgb(0, 0, 0));&quot;&gt;to too many&lt;/font&gt;&lt;/div&gt;&lt;div&gt;&lt;font style=&quot;color: light-dark(rgb(0, 0, 0), rgb(0, 0, 0));&quot;&gt;invalid PINS&lt;/font&gt;&lt;/div&gt;&lt;div&gt;&lt;font style=&quot;color: light-dark(rgb(0, 0, 0), rgb(0, 0, 0));&quot;&gt;- card&lt;/font&gt;&lt;/div&gt;&lt;div&gt;&lt;font style=&quot;color: light-dark(rgb(0, 0, 0), rgb(0, 0, 0));&quot;&gt;retained&lt;/font&gt;&lt;/div&gt;" style="text;html=1;align=left;verticalAlign=middle;resizable=0;points=[];autosize=1;strokeColor=none;fillColor=none;" vertex="1" parent="1">
          <mxGeometry x="223" y="509" width="83" height="84" as="geometry" />
        </mxCell>
        <mxCell id="F_QdYi4xcxkMWuRYnJX9-49" value="&lt;font style=&quot;color: light-dark(rgb(0, 0, 0), rgb(128, 128, 128));&quot;&gt;Airline Reservation System&lt;/font&gt;" style="text;html=1;align=center;verticalAlign=middle;resizable=0;points=[];autosize=1;strokeColor=none;fillColor=none;" vertex="1" parent="1">
          <mxGeometry x="338" y="700" width="162" height="26" as="geometry" />
        </mxCell>
      </root>
    </mxGraphModel>
  </diagram>
</mxfile>
